<mxfile host="app.diagrams.net" agent="Mozilla/5.0 (Windows NT 10.0; Win64; x64) AppleWebKit/537.36 (KHTML, like Gecko) Chrome/141.0.0.0 Safari/537.36" version="28.2.7">
  <diagram name="Page-1" id="S3hy3yUOgpg-ydZ0yWJ3">
    <mxGraphModel dx="2569" dy="1159" grid="1" gridSize="10" guides="1" tooltips="1" connect="1" arrows="1" fold="1" page="1" pageScale="1" pageWidth="850" pageHeight="1100" math="0" shadow="0">
      <root>
        <mxCell id="0" />
        <mxCell id="1" parent="0" />
        <mxCell id="vBhXxDKZrBAMfrTWmdaV-112" style="edgeStyle=orthogonalEdgeStyle;rounded=0;orthogonalLoop=1;jettySize=auto;html=1;exitX=0.75;exitY=1;exitDx=0;exitDy=0;" edge="1" parent="1" source="vBhXxDKZrBAMfrTWmdaV-108">
          <mxGeometry relative="1" as="geometry">
            <mxPoint x="265.2857142857147" y="550" as="targetPoint" />
          </mxGeometry>
        </mxCell>
        <mxCell id="vBhXxDKZrBAMfrTWmdaV-108" value="" style="rounded=0;whiteSpace=wrap;html=1;" vertex="1" parent="1">
          <mxGeometry x="189" y="236" width="100" height="126" as="geometry" />
        </mxCell>
        <mxCell id="vBhXxDKZrBAMfrTWmdaV-117" style="edgeStyle=orthogonalEdgeStyle;rounded=0;orthogonalLoop=1;jettySize=auto;html=1;exitX=1;exitY=0.5;exitDx=0;exitDy=0;entryX=0;entryY=1;entryDx=0;entryDy=0;" edge="1" parent="1" source="vBhXxDKZrBAMfrTWmdaV-92" target="vBhXxDKZrBAMfrTWmdaV-114">
          <mxGeometry relative="1" as="geometry">
            <Array as="points">
              <mxPoint x="1210" y="384" />
              <mxPoint x="1210" y="770" />
              <mxPoint x="-320" y="770" />
            </Array>
          </mxGeometry>
        </mxCell>
        <mxCell id="vBhXxDKZrBAMfrTWmdaV-92" value="" style="rounded=1;whiteSpace=wrap;html=1;" vertex="1" parent="1">
          <mxGeometry x="680" y="284" width="510" height="200" as="geometry" />
        </mxCell>
        <mxCell id="vBhXxDKZrBAMfrTWmdaV-90" style="edgeStyle=orthogonalEdgeStyle;rounded=0;orthogonalLoop=1;jettySize=auto;html=1;exitX=1;exitY=0.25;exitDx=0;exitDy=0;entryX=0;entryY=0.25;entryDx=0;entryDy=0;" edge="1" parent="1" source="vBhXxDKZrBAMfrTWmdaV-85" target="vBhXxDKZrBAMfrTWmdaV-88">
          <mxGeometry relative="1" as="geometry" />
        </mxCell>
        <mxCell id="vBhXxDKZrBAMfrTWmdaV-85" value="" style="rounded=0;whiteSpace=wrap;html=1;" vertex="1" parent="1">
          <mxGeometry x="720" y="324" width="240" height="135" as="geometry" />
        </mxCell>
        <mxCell id="vBhXxDKZrBAMfrTWmdaV-79" style="edgeStyle=orthogonalEdgeStyle;rounded=0;orthogonalLoop=1;jettySize=auto;html=1;exitX=1;exitY=0.25;exitDx=0;exitDy=0;entryX=0;entryY=0.75;entryDx=0;entryDy=0;" edge="1" parent="1" source="vBhXxDKZrBAMfrTWmdaV-66" target="vBhXxDKZrBAMfrTWmdaV-71">
          <mxGeometry relative="1" as="geometry" />
        </mxCell>
        <mxCell id="vBhXxDKZrBAMfrTWmdaV-66" value="" style="rounded=0;whiteSpace=wrap;html=1;" vertex="1" parent="1">
          <mxGeometry x="290" y="635" width="480" height="90" as="geometry" />
        </mxCell>
        <mxCell id="vBhXxDKZrBAMfrTWmdaV-43" style="edgeStyle=orthogonalEdgeStyle;rounded=0;orthogonalLoop=1;jettySize=auto;html=1;exitX=1;exitY=0;exitDx=0;exitDy=52.5;exitPerimeter=0;entryX=0.5;entryY=0;entryDx=0;entryDy=0;" edge="1" parent="1" source="vBhXxDKZrBAMfrTWmdaV-5" target="vBhXxDKZrBAMfrTWmdaV-97">
          <mxGeometry relative="1" as="geometry">
            <mxPoint x="172" y="450" as="targetPoint" />
          </mxGeometry>
        </mxCell>
        <mxCell id="vBhXxDKZrBAMfrTWmdaV-5" value="Vector DB" style="shape=cylinder3;whiteSpace=wrap;html=1;boundedLbl=1;backgroundOutline=1;size=15;" vertex="1" parent="1">
          <mxGeometry x="13" y="339" width="60" height="80" as="geometry" />
        </mxCell>
        <mxCell id="vBhXxDKZrBAMfrTWmdaV-99" style="edgeStyle=orthogonalEdgeStyle;rounded=0;orthogonalLoop=1;jettySize=auto;html=1;exitX=0.96;exitY=0.7;exitDx=0;exitDy=0;exitPerimeter=0;entryX=0;entryY=0.25;entryDx=0;entryDy=0;dashed=1;" edge="1" parent="1" source="vBhXxDKZrBAMfrTWmdaV-6" target="vBhXxDKZrBAMfrTWmdaV-68">
          <mxGeometry relative="1" as="geometry" />
        </mxCell>
        <mxCell id="vBhXxDKZrBAMfrTWmdaV-100" style="edgeStyle=orthogonalEdgeStyle;rounded=0;orthogonalLoop=1;jettySize=auto;html=1;exitX=0.96;exitY=0.7;exitDx=0;exitDy=0;exitPerimeter=0;entryX=0.25;entryY=0;entryDx=0;entryDy=0;dashed=1;" edge="1" parent="1" source="vBhXxDKZrBAMfrTWmdaV-6" target="vBhXxDKZrBAMfrTWmdaV-69">
          <mxGeometry relative="1" as="geometry" />
        </mxCell>
        <mxCell id="vBhXxDKZrBAMfrTWmdaV-102" style="edgeStyle=orthogonalEdgeStyle;rounded=0;orthogonalLoop=1;jettySize=auto;html=1;exitX=0.88;exitY=0.25;exitDx=0;exitDy=0;exitPerimeter=0;entryX=0;entryY=0.25;entryDx=0;entryDy=0;dashed=1;" edge="1" parent="1" source="vBhXxDKZrBAMfrTWmdaV-6" target="vBhXxDKZrBAMfrTWmdaV-92">
          <mxGeometry relative="1" as="geometry" />
        </mxCell>
        <mxCell id="vBhXxDKZrBAMfrTWmdaV-6" value="LLM-Generator" style="ellipse;shape=cloud;whiteSpace=wrap;html=1;" vertex="1" parent="1">
          <mxGeometry x="320" y="204" width="240" height="160" as="geometry" />
        </mxCell>
        <mxCell id="vBhXxDKZrBAMfrTWmdaV-28" style="edgeStyle=orthogonalEdgeStyle;rounded=0;orthogonalLoop=1;jettySize=auto;html=1;exitX=0.5;exitY=0;exitDx=0;exitDy=0;entryX=0.58;entryY=1.017;entryDx=0;entryDy=0;entryPerimeter=0;" edge="1" parent="1" source="vBhXxDKZrBAMfrTWmdaV-26" target="vBhXxDKZrBAMfrTWmdaV-97">
          <mxGeometry relative="1" as="geometry">
            <mxPoint x="237" y="510" as="targetPoint" />
          </mxGeometry>
        </mxCell>
        <mxCell id="vBhXxDKZrBAMfrTWmdaV-60" style="edgeStyle=orthogonalEdgeStyle;rounded=0;orthogonalLoop=1;jettySize=auto;html=1;exitX=1;exitY=0.5;exitDx=0;exitDy=0;entryX=0;entryY=0.5;entryDx=0;entryDy=0;" edge="1" parent="1" source="vBhXxDKZrBAMfrTWmdaV-26" target="vBhXxDKZrBAMfrTWmdaV-58">
          <mxGeometry relative="1" as="geometry" />
        </mxCell>
        <mxCell id="vBhXxDKZrBAMfrTWmdaV-115" style="edgeStyle=orthogonalEdgeStyle;rounded=0;orthogonalLoop=1;jettySize=auto;html=1;exitX=0.5;exitY=1;exitDx=0;exitDy=0;entryX=0.5;entryY=1;entryDx=0;entryDy=0;" edge="1" parent="1" source="vBhXxDKZrBAMfrTWmdaV-26" target="vBhXxDKZrBAMfrTWmdaV-114">
          <mxGeometry relative="1" as="geometry" />
        </mxCell>
        <mxCell id="vBhXxDKZrBAMfrTWmdaV-26" value="Query Similarity" style="shape=process;whiteSpace=wrap;html=1;backgroundOutline=1;" vertex="1" parent="1">
          <mxGeometry x="-160" y="554" width="130" height="60" as="geometry" />
        </mxCell>
        <mxCell id="vBhXxDKZrBAMfrTWmdaV-32" value="Data Dictionary" style="rounded=1;whiteSpace=wrap;html=1;dashed=1;dashPattern=1 1;" vertex="1" parent="1">
          <mxGeometry x="-50" y="264" width="103" height="40" as="geometry" />
        </mxCell>
        <mxCell id="vBhXxDKZrBAMfrTWmdaV-33" value="Relationships" style="rounded=1;whiteSpace=wrap;html=1;dashed=1;dashPattern=1 1;" vertex="1" parent="1">
          <mxGeometry x="-170" y="310" width="103" height="40" as="geometry" />
        </mxCell>
        <mxCell id="vBhXxDKZrBAMfrTWmdaV-44" style="edgeStyle=orthogonalEdgeStyle;rounded=0;orthogonalLoop=1;jettySize=auto;html=1;exitX=0.75;exitY=1;exitDx=0;exitDy=0;entryX=0.25;entryY=0;entryDx=0;entryDy=0;" edge="1" parent="1" source="vBhXxDKZrBAMfrTWmdaV-34" target="vBhXxDKZrBAMfrTWmdaV-26">
          <mxGeometry relative="1" as="geometry" />
        </mxCell>
        <mxCell id="vBhXxDKZrBAMfrTWmdaV-34" value="Query History" style="rounded=1;whiteSpace=wrap;html=1;dashed=1;dashPattern=1 1;" vertex="1" parent="1">
          <mxGeometry x="-120" y="444" width="113" height="40" as="geometry" />
        </mxCell>
        <mxCell id="vBhXxDKZrBAMfrTWmdaV-35" value="SQL Rules" style="rounded=1;whiteSpace=wrap;html=1;dashed=1;dashPattern=1 1;" vertex="1" parent="1">
          <mxGeometry x="199" y="265" width="80" height="40" as="geometry" />
        </mxCell>
        <mxCell id="vBhXxDKZrBAMfrTWmdaV-36" value="Business Rules" style="rounded=1;whiteSpace=wrap;html=1;dashed=1;dashPattern=1 1;" vertex="1" parent="1">
          <mxGeometry x="199" y="315" width="80" height="40" as="geometry" />
        </mxCell>
        <mxCell id="vBhXxDKZrBAMfrTWmdaV-42" style="edgeStyle=orthogonalEdgeStyle;rounded=0;orthogonalLoop=1;jettySize=auto;html=1;exitX=0;exitY=0.5;exitDx=0;exitDy=0;entryX=0.5;entryY=1;entryDx=0;entryDy=0;entryPerimeter=0;" edge="1" parent="1" source="vBhXxDKZrBAMfrTWmdaV-97" target="vBhXxDKZrBAMfrTWmdaV-5">
          <mxGeometry relative="1" as="geometry">
            <mxPoint x="172" y="470" as="sourcePoint" />
          </mxGeometry>
        </mxCell>
        <mxCell id="vBhXxDKZrBAMfrTWmdaV-45" style="edgeStyle=orthogonalEdgeStyle;rounded=0;orthogonalLoop=1;jettySize=auto;html=1;exitX=0.75;exitY=0;exitDx=0;exitDy=0;entryX=0;entryY=1;entryDx=0;entryDy=-15;entryPerimeter=0;" edge="1" parent="1" source="vBhXxDKZrBAMfrTWmdaV-34" target="vBhXxDKZrBAMfrTWmdaV-5">
          <mxGeometry relative="1" as="geometry">
            <Array as="points">
              <mxPoint x="-40" y="444" />
              <mxPoint x="-40" y="404" />
            </Array>
          </mxGeometry>
        </mxCell>
        <mxCell id="vBhXxDKZrBAMfrTWmdaV-47" style="edgeStyle=orthogonalEdgeStyle;rounded=0;orthogonalLoop=1;jettySize=auto;html=1;exitX=1;exitY=0.5;exitDx=0;exitDy=0;entryX=0;entryY=0.5;entryDx=0;entryDy=0;entryPerimeter=0;" edge="1" parent="1" source="vBhXxDKZrBAMfrTWmdaV-33" target="vBhXxDKZrBAMfrTWmdaV-5">
          <mxGeometry relative="1" as="geometry">
            <Array as="points">
              <mxPoint x="-40" y="330" />
              <mxPoint x="-40" y="379" />
            </Array>
          </mxGeometry>
        </mxCell>
        <mxCell id="vBhXxDKZrBAMfrTWmdaV-48" style="edgeStyle=orthogonalEdgeStyle;rounded=0;orthogonalLoop=1;jettySize=auto;html=1;exitX=0.5;exitY=1;exitDx=0;exitDy=0;entryX=0.358;entryY=0.013;entryDx=0;entryDy=0;entryPerimeter=0;" edge="1" parent="1" source="vBhXxDKZrBAMfrTWmdaV-32" target="vBhXxDKZrBAMfrTWmdaV-5">
          <mxGeometry relative="1" as="geometry" />
        </mxCell>
        <mxCell id="vBhXxDKZrBAMfrTWmdaV-50" style="edgeStyle=orthogonalEdgeStyle;rounded=0;orthogonalLoop=1;jettySize=auto;html=1;exitX=1;exitY=0.5;exitDx=0;exitDy=0;entryX=0;entryY=0.5;entryDx=0;entryDy=0;" edge="1" parent="1" target="vBhXxDKZrBAMfrTWmdaV-26">
          <mxGeometry relative="1" as="geometry">
            <mxPoint x="-210" y="585" as="sourcePoint" />
          </mxGeometry>
        </mxCell>
        <mxCell id="vBhXxDKZrBAMfrTWmdaV-67" style="edgeStyle=orthogonalEdgeStyle;rounded=0;orthogonalLoop=1;jettySize=auto;html=1;exitX=0.5;exitY=1;exitDx=0;exitDy=0;entryX=0;entryY=0.5;entryDx=0;entryDy=0;" edge="1" parent="1" source="vBhXxDKZrBAMfrTWmdaV-54" target="vBhXxDKZrBAMfrTWmdaV-66">
          <mxGeometry relative="1" as="geometry" />
        </mxCell>
        <mxCell id="vBhXxDKZrBAMfrTWmdaV-70" style="edgeStyle=orthogonalEdgeStyle;rounded=0;orthogonalLoop=1;jettySize=auto;html=1;exitX=1;exitY=0.5;exitDx=0;exitDy=0;entryX=0;entryY=0.5;entryDx=0;entryDy=0;" edge="1" parent="1" source="vBhXxDKZrBAMfrTWmdaV-54" target="vBhXxDKZrBAMfrTWmdaV-68">
          <mxGeometry relative="1" as="geometry" />
        </mxCell>
        <mxCell id="vBhXxDKZrBAMfrTWmdaV-54" value="Query Orchestrator" style="shape=process;whiteSpace=wrap;html=1;backgroundOutline=1;" vertex="1" parent="1">
          <mxGeometry x="190" y="554" width="120" height="60" as="geometry" />
        </mxCell>
        <mxCell id="vBhXxDKZrBAMfrTWmdaV-55" value="Query Decomposer" style="shape=process;whiteSpace=wrap;html=1;backgroundOutline=1;fontSize=11;rounded=0;gradientColor=none;" vertex="1" parent="1">
          <mxGeometry x="303" y="665" width="90" height="50" as="geometry" />
        </mxCell>
        <mxCell id="vBhXxDKZrBAMfrTWmdaV-56" value="Tasks Planer" style="shape=process;whiteSpace=wrap;html=1;backgroundOutline=1;fontSize=11;" vertex="1" parent="1">
          <mxGeometry x="415" y="665" width="96" height="50" as="geometry" />
        </mxCell>
        <mxCell id="vBhXxDKZrBAMfrTWmdaV-57" value="Synthesize Tasks SQLs" style="shape=process;whiteSpace=wrap;html=1;backgroundOutline=1;fontSize=11;" vertex="1" parent="1">
          <mxGeometry x="657" y="665" width="100" height="50" as="geometry" />
        </mxCell>
        <mxCell id="vBhXxDKZrBAMfrTWmdaV-96" style="edgeStyle=orthogonalEdgeStyle;rounded=0;orthogonalLoop=1;jettySize=auto;html=1;exitX=1;exitY=0.5;exitDx=0;exitDy=0;entryX=0;entryY=0.5;entryDx=0;entryDy=0;" edge="1" parent="1" source="vBhXxDKZrBAMfrTWmdaV-58" target="vBhXxDKZrBAMfrTWmdaV-54">
          <mxGeometry relative="1" as="geometry" />
        </mxCell>
        <mxCell id="vBhXxDKZrBAMfrTWmdaV-116" style="edgeStyle=orthogonalEdgeStyle;rounded=0;orthogonalLoop=1;jettySize=auto;html=1;exitX=0.5;exitY=1;exitDx=0;exitDy=0;entryX=0.25;entryY=1;entryDx=0;entryDy=0;" edge="1" parent="1" source="vBhXxDKZrBAMfrTWmdaV-58" target="vBhXxDKZrBAMfrTWmdaV-114">
          <mxGeometry relative="1" as="geometry">
            <Array as="points">
              <mxPoint x="80" y="660" />
              <mxPoint x="-287" y="660" />
            </Array>
          </mxGeometry>
        </mxCell>
        <mxCell id="vBhXxDKZrBAMfrTWmdaV-58" value="Intelligent Pre-Validation" style="shape=process;whiteSpace=wrap;html=1;backgroundOutline=1;" vertex="1" parent="1">
          <mxGeometry x="20" y="554" width="120" height="60" as="geometry" />
        </mxCell>
        <mxCell id="vBhXxDKZrBAMfrTWmdaV-98" style="edgeStyle=orthogonalEdgeStyle;rounded=0;orthogonalLoop=1;jettySize=auto;html=1;exitX=0.13;exitY=0.77;exitDx=0;exitDy=0;exitPerimeter=0;dashed=1;" edge="1" parent="1" source="vBhXxDKZrBAMfrTWmdaV-59" target="vBhXxDKZrBAMfrTWmdaV-58">
          <mxGeometry relative="1" as="geometry">
            <Array as="points">
              <mxPoint x="414" y="540" />
              <mxPoint x="80" y="540" />
            </Array>
          </mxGeometry>
        </mxCell>
        <mxCell id="vBhXxDKZrBAMfrTWmdaV-103" style="edgeStyle=orthogonalEdgeStyle;rounded=0;orthogonalLoop=1;jettySize=auto;html=1;exitX=0.88;exitY=0.25;exitDx=0;exitDy=0;exitPerimeter=0;entryX=0;entryY=0.5;entryDx=0;entryDy=0;dashed=1;" edge="1" parent="1" source="vBhXxDKZrBAMfrTWmdaV-59" target="vBhXxDKZrBAMfrTWmdaV-92">
          <mxGeometry relative="1" as="geometry" />
        </mxCell>
        <mxCell id="vBhXxDKZrBAMfrTWmdaV-59" value="LLM-Validator" style="ellipse;shape=cloud;whiteSpace=wrap;html=1;" vertex="1" parent="1">
          <mxGeometry x="303" y="356.5" width="237" height="145" as="geometry" />
        </mxCell>
        <mxCell id="vBhXxDKZrBAMfrTWmdaV-64" value="Tasks SQL generator" style="shape=process;whiteSpace=wrap;html=1;backgroundOutline=1;fontSize=11;" vertex="1" parent="1">
          <mxGeometry x="535" y="665" width="100" height="50" as="geometry" />
        </mxCell>
        <mxCell id="vBhXxDKZrBAMfrTWmdaV-80" style="edgeStyle=orthogonalEdgeStyle;rounded=0;orthogonalLoop=1;jettySize=auto;html=1;exitX=1;exitY=0.5;exitDx=0;exitDy=0;entryX=0;entryY=0.25;entryDx=0;entryDy=0;" edge="1" parent="1" source="vBhXxDKZrBAMfrTWmdaV-68" target="vBhXxDKZrBAMfrTWmdaV-71">
          <mxGeometry relative="1" as="geometry" />
        </mxCell>
        <mxCell id="vBhXxDKZrBAMfrTWmdaV-68" value="Simple SQL generator" style="shape=process;whiteSpace=wrap;html=1;backgroundOutline=1;" vertex="1" parent="1">
          <mxGeometry x="647" y="554" width="120" height="60" as="geometry" />
        </mxCell>
        <mxCell id="vBhXxDKZrBAMfrTWmdaV-69" value="Complex SQL Generator" style="text;html=1;whiteSpace=wrap;strokeColor=none;fillColor=none;align=center;verticalAlign=middle;rounded=0;" vertex="1" parent="1">
          <mxGeometry x="467" y="630" width="180" height="30" as="geometry" />
        </mxCell>
        <mxCell id="vBhXxDKZrBAMfrTWmdaV-94" style="edgeStyle=orthogonalEdgeStyle;rounded=0;orthogonalLoop=1;jettySize=auto;html=1;exitX=0.5;exitY=0;exitDx=0;exitDy=0;entryX=0.5;entryY=1;entryDx=0;entryDy=0;" edge="1" parent="1" source="vBhXxDKZrBAMfrTWmdaV-71" target="vBhXxDKZrBAMfrTWmdaV-92">
          <mxGeometry relative="1" as="geometry">
            <mxPoint x="1160" y="540" as="targetPoint" />
          </mxGeometry>
        </mxCell>
        <mxCell id="vBhXxDKZrBAMfrTWmdaV-71" value="Post Validation" style="shape=process;whiteSpace=wrap;html=1;backgroundOutline=1;" vertex="1" parent="1">
          <mxGeometry x="860" y="590" width="120" height="60" as="geometry" />
        </mxCell>
        <mxCell id="vBhXxDKZrBAMfrTWmdaV-81" value="Schema Validation" style="shape=process;whiteSpace=wrap;html=1;backgroundOutline=1;" vertex="1" parent="1">
          <mxGeometry x="730" y="349" width="90" height="45" as="geometry" />
        </mxCell>
        <mxCell id="vBhXxDKZrBAMfrTWmdaV-82" value="Semantic Validation" style="shape=process;whiteSpace=wrap;html=1;backgroundOutline=1;" vertex="1" parent="1">
          <mxGeometry x="850" y="349" width="100" height="45" as="geometry" />
        </mxCell>
        <mxCell id="vBhXxDKZrBAMfrTWmdaV-83" value="Syntax Validation" style="shape=process;whiteSpace=wrap;html=1;backgroundOutline=1;" vertex="1" parent="1">
          <mxGeometry x="730" y="404" width="90" height="45" as="geometry" />
        </mxCell>
        <mxCell id="vBhXxDKZrBAMfrTWmdaV-84" value="Completeness Validation" style="shape=process;whiteSpace=wrap;html=1;backgroundOutline=1;" vertex="1" parent="1">
          <mxGeometry x="850" y="404" width="100" height="45" as="geometry" />
        </mxCell>
        <mxCell id="vBhXxDKZrBAMfrTWmdaV-87" value="Validate SQL" style="text;html=1;whiteSpace=wrap;strokeColor=none;fillColor=none;align=center;verticalAlign=middle;rounded=0;" vertex="1" parent="1">
          <mxGeometry x="795" y="320" width="90" height="30" as="geometry" />
        </mxCell>
        <mxCell id="vBhXxDKZrBAMfrTWmdaV-91" style="edgeStyle=orthogonalEdgeStyle;rounded=0;orthogonalLoop=1;jettySize=auto;html=1;exitX=0;exitY=0.75;exitDx=0;exitDy=0;entryX=1;entryY=0.75;entryDx=0;entryDy=0;" edge="1" parent="1" source="vBhXxDKZrBAMfrTWmdaV-88" target="vBhXxDKZrBAMfrTWmdaV-85">
          <mxGeometry relative="1" as="geometry" />
        </mxCell>
        <mxCell id="vBhXxDKZrBAMfrTWmdaV-88" value="Regenerate SQL" style="shape=process;whiteSpace=wrap;html=1;backgroundOutline=1;" vertex="1" parent="1">
          <mxGeometry x="1050" y="356.5" width="120" height="60" as="geometry" />
        </mxCell>
        <mxCell id="vBhXxDKZrBAMfrTWmdaV-93" value="Self Correct Loop" style="text;html=1;whiteSpace=wrap;strokeColor=none;fillColor=none;align=center;verticalAlign=middle;rounded=0;" vertex="1" parent="1">
          <mxGeometry x="885" y="284" width="110" height="30" as="geometry" />
        </mxCell>
        <mxCell id="vBhXxDKZrBAMfrTWmdaV-97" value="RAG Agent" style="shape=process;whiteSpace=wrap;html=1;backgroundOutline=1;" vertex="1" parent="1">
          <mxGeometry x="120" y="434" width="120" height="60" as="geometry" />
        </mxCell>
        <mxCell id="vBhXxDKZrBAMfrTWmdaV-105" style="edgeStyle=orthogonalEdgeStyle;rounded=0;orthogonalLoop=1;jettySize=auto;html=1;exitX=1;exitY=0.5;exitDx=0;exitDy=0;entryX=0.074;entryY=0.003;entryDx=0;entryDy=0;entryPerimeter=0;" edge="1" parent="1" source="vBhXxDKZrBAMfrTWmdaV-97" target="vBhXxDKZrBAMfrTWmdaV-66">
          <mxGeometry relative="1" as="geometry" />
        </mxCell>
        <mxCell id="vBhXxDKZrBAMfrTWmdaV-109" value="Guard Rails" style="text;html=1;whiteSpace=wrap;strokeColor=none;fillColor=none;align=center;verticalAlign=middle;rounded=0;" vertex="1" parent="1">
          <mxGeometry x="197" y="236" width="80" height="30" as="geometry" />
        </mxCell>
        <mxCell id="vBhXxDKZrBAMfrTWmdaV-111" style="edgeStyle=orthogonalEdgeStyle;rounded=0;orthogonalLoop=1;jettySize=auto;html=1;exitX=0.13;exitY=0.77;exitDx=0;exitDy=0;exitPerimeter=0;entryX=0.889;entryY=0.021;entryDx=0;entryDy=0;entryPerimeter=0;dashed=1;" edge="1" parent="1" source="vBhXxDKZrBAMfrTWmdaV-6" target="vBhXxDKZrBAMfrTWmdaV-54">
          <mxGeometry relative="1" as="geometry" />
        </mxCell>
        <mxCell id="vBhXxDKZrBAMfrTWmdaV-113" value="Validated SQL Query / Error" style="text;html=1;whiteSpace=wrap;strokeColor=none;fillColor=none;align=center;verticalAlign=middle;rounded=0;" vertex="1" parent="1">
          <mxGeometry x="330" y="742" width="220" height="30" as="geometry" />
        </mxCell>
        <mxCell id="vBhXxDKZrBAMfrTWmdaV-114" value="" style="rounded=1;whiteSpace=wrap;html=1;" vertex="1" parent="1">
          <mxGeometry x="-320" y="459" width="130" height="141" as="geometry" />
        </mxCell>
        <mxCell id="vBhXxDKZrBAMfrTWmdaV-118" value="Actor" style="shape=umlActor;verticalLabelPosition=bottom;verticalAlign=top;html=1;outlineConnect=0;" vertex="1" parent="1">
          <mxGeometry x="-280" y="470" width="30" height="60" as="geometry" />
        </mxCell>
      </root>
    </mxGraphModel>
  </diagram>
</mxfile>
